#!OML:ASF F:\VICON\USERDATA\INSTALL\rory3\rory3.ASF
:FULLY-SPECIFIED
:DEGREES
137
root -11.4839 17.7106 0.721537 82.3483 92.7867 84.7703
lowerback 14.5886 1.55204 1.18063
upperback 1.5615 2.42396 1.32659
thorax -6.53292 1.20545 0.249744
lowerneck -14.9692 -9.15401 -13.6812
upperneck 29.3999 -12.098 10.6123
head 14.1027 -5.26645 4.53933
rclavicle -1.72943e-014 -3.8763e-015
rhumerus -34.7308 -15.7215 -73.5003
rradius 36.3243
rwrist 3.86955
rhand -20.3426 6.79517
rfingers 7.12502
rthumb 6.00906 -23.0996
lclavicle -1.72943e-014 -3.8763e-015
lhumerus -36.0924 5.73827 80.1722
lradius 39.3835
lwrist -5.69182
lhand -18.7865 22.5582
lfingers 7.12502
lthumb 7.51121 52.4049
rfemur -4.52333 4.23548 17.8162
rtibia 27.0015
rfoot -18.0076 2.54416
rtoes -8.37314
lfemur -14.468 -2.69343 -14.1535
ltibia 47.638
lfoot -17.6101 -9.69236
ltoes -14.8112
138
root -11.4841 17.706 0.777851 83.0252 93.0503 85.3797
lowerback 14.4787 1.52363 1.53015
upperback 1.53815 2.44653 1.41281
thorax -6.48651 1.2089 0.142253
lowerneck -14.9588 -9.11499 -13.693
upperneck 29.3996 -12.0061 10.5169
head 14.0784 -5.24053 4.51982
rclavicle 2.75193e-014 5.46658e-015
rhumerus -34.7072 -15.8157 -73.3061
rradius 36.2391
rwrist 4.00463
rhand -20.1157 6.72136
rfingers 7.12502
rthumb 6.22809 -23.1671
lclavicle 2.75193e-014 5.46658e-015
lhumerus -36.1919 5.97874 80.2594
lradius 39.3871
lwrist -5.72742
lhand -18.6998 22.4238
lfingers 7.12502
lthumb 7.59496 52.2674
rfemur -4.80011 3.92986 18.2647
rtibia 27.3782
rfoot -18.1797 2.7524
rtoes -8.01163
lfemur -14.5841 -1.39119 -14.8102
ltibia 47.9341
lfoot -17.7953 -10.7188
ltoes -12.46
139
root -11.4838 17.6998 0.831016 82.1183 92.9861 84.3566
lowerback 14.3313 1.54178 1.54118
upperback 1.48913 2.46903 1.43409
thorax -6.45743 1.2192 0.157818
lowerneck -14.851 -9.11573 -13.7872
upperneck 29.3316 -11.9738 10.4762
head 14.0244 -5.24666 4.52533
rclavicle 4.95719e-015 -1.12313e-014
rhumerus -34.7673 -15.7666 -73.0998
rradius 36.2619
rwrist 3.79381
rhand -19.6608 6.67971
rfingers 7.12502
rthumb 6.66729 -23.1953
lclavicle 4.95719e-015 -1.12313e-014
lhumerus -36.2738 6.14801 80.4262
lradius 39.3714
lwrist -5.68188
lhand -18.8975 22.7787
lfingers 7.12502
lthumb 7.40412 52.6292
rfemur -5.14463 3.83255 18.3784
rtibia 27.8907
rfoot -18.4553 2.68249
rtoes -7.77776
lfemur -14.6305 -0.174862 -15.8371
ltibia 48.036
lfoot -17.7355 -11.7027
ltoes -9.12499
140
root -11.4801 17.679 0.892829 80.7983 93.0741 83.0135
lowerback 14.2222 1.51176 1.57553
upperback 1.49019 2.43909 1.52867
thorax -6.39892 1.20587 0.247402
lowerneck -14.8707 -9.08166 -13.8306
upperneck 29.3034 -11.8939 10.434
head 14.0036 -5.22258 4.52885
rclavicle -2.13942e-014 -1.27222e-014
rhumerus -34.7956 -15.6614 -72.9861
rradius 36.3532
rwrist 3.69312
rhand -18.9033 6.60445
rfingers 7.12502
rthumb 7.39847 -23.2462
lclavicle -2.13942e-014 -1.27222e-014
lhumerus -36.3611 6.15332 80.6016
lradius 39.3688
lwrist -5.52499
lhand -19.2171 23.0898
lfingers 7.12502
lthumb 7.09555 52.9509
rfemur -5.3662 3.8446 18.701
rtibia 28.3797
rfoot -18.7176 2.49815
rtoes -7.18258
lfemur -14.5367 1.17884 -16.7253
ltibia 48.0021
lfoot -18.3988 -11.6363
ltoes -12.5619
141
root -11.4761 17.6553 0.951248 80.2146 93.0945 82.3848
lowerback 14.0703 1.5046 1.54596
upperback 1.49376 2.42579 1.59917
thorax -6.31535 1.20197 0.3455
lowerneck -14.9034 -9.06554 -13.911
upperneck 29.3049 -11.8459 10.4416
head 14.0109 -5.20909 4.55387
rclavicle 3.40419e-014 2.38542e-014
rhumerus -34.7776 -15.7883 -72.8381
rradius 36.3349
rwrist 3.88079
rhand -18.5023 6.75005
rfingers 7.12502
rthumb 7.7855 -23.0866
lclavicle 3.40419e-014 2.38542e-014
lhumerus -36.4192 6.28067 80.7916
lradius 39.2891
lwrist -5.41929
lhand -19.4581 23.3544
lfingers 7.12502
lthumb 6.86298 53.2232
rfemur -5.7087 3.50812 18.8525
rtibia 29.004
rfoot -19.0549 2.78606
rtoes -6.351
lfemur -14.3945 2.49709 -17.6608
ltibia 47.8343
lfoot -19.199 -11.3218
ltoes -17.8544
142
root -11.471 17.651 1.0054 77.9961 93.0237 80.0772
lowerback 13.9035 1.52135 1.43974
upperback 1.466 2.4276 1.61923
thorax -6.25759 1.20566 0.430595
lowerneck -14.8849 -9.07815 -13.954
upperneck 29.3159 -11.8523 10.4383
head 14.0162 -5.21689 4.55947
rclavicle -8.07563e-015 -1.07344e-014
rhumerus -34.855 -15.8143 -72.7181
rradius 36.3923
rwrist 3.8546
rhand -18.8115 6.83418
rfingers 7.12502
rthumb 7.48712 -23.0133
lclavicle -8.07563e-015 -1.07344e-014
lhumerus -36.4409 6.45667 80.9633
lradius 39.1752
lwrist -5.43424
lhand -19.5041 23.4571
lfingers 7.12502
lthumb 6.81854 53.3273
rfemur -6.00624 3.07324 18.8679
rtibia 29.4602
rfoot -19.3036 3.09925
rtoes -5.984
lfemur -14.2323 3.15764 -18.4981
ltibia 47.6128
lfoot -18.1428 -13.3309
ltoes -11.0501
143
root -11.4665 17.6299 1.06013 74.4591 93.1113 76.4939
lowerback 13.8162 1.47933 1.43474
upperback 1.41327 2.37397 1.68811
thorax -6.26843 1.17993 0.517956
lowerneck -14.8599 -9.04181 -13.8446
upperneck 29.3502 -11.7797 10.2747
head 13.9917 -5.19309 4.4895
rclavicle -1.61264e-014 1.53064e-014
rhumerus -34.9605 -15.6848 -72.6391
rradius 36.4649
rwrist 3.78387
rhand -19.3547 6.77984
rfingers 7.12502
rthumb 6.96274 -23.0856
lclavicle -1.61264e-014 1.53064e-014
lhumerus -36.5064 6.69636 81.0478
lradius 39.0012
lwrist -5.56032
lhand -18.9421 23.0238
lfingers 7.12502
lthumb 7.36104 52.8758
rfemur -6.38231 2.60041 19.0516
rtibia 30.174
rfoot -19.7161 3.21121
rtoes -6.29079
lfemur -14.0095 4.43961 -19.3466
ltibia 47.256
lfoot -19.1018 -12.3222
ltoes -19.7225
144
root -11.4549 17.6443 1.10736 72.0636 93.2963 74.0789
lowerback 13.7192 1.43962 1.54148
upperback 1.37087 2.34082 1.76221
thorax -6.25865 1.16187 0.544289
lowerneck -14.8314 -9.01669 -13.8066
upperneck 29.3904 -11.7448 10.2387
head 13.9915 -5.17738 4.47773
rclavicle -2.13445e-014 -1.63003e-014
rhumerus -35.0103 -15.6476 -72.6118
rradius 36.4921
rwrist 3.71384
rhand -19.3362 6.58108
rfingers 7.12502
rthumb 6.9806 -23.2838
lclavicle -2.13445e-014 -1.63003e-014
lhumerus -36.5858 6.73112 81.1732
lradius 38.8354
lwrist -5.43888
lhand -18.7131 22.7592
lfingers 7.12502
lthumb 7.58204 52.6033
rfemur -6.57277 2.1834 19.3221
rtibia 30.6819
rfoot -20.0797 3.34917
rtoes -6.03677
lfemur -13.6192 4.33843 -19.7358
ltibia 46.9014
lfoot -16.8581 -14.7246
ltoes -7.25449
145
root -11.4491 17.586 1.16869 69.6595 93.4094 71.6599
lowerback 13.5745 1.46879 1.4846
upperback 1.35343 2.37 1.80974
thorax -6.20124 1.17851 0.624659
lowerneck -14.781 -9.03674 -13.6542
upperneck 29.382 -11.8087 10.1997
head 13.9711 -5.19287 4.42521
rclavicle 1.37161e-014 2.26615e-014
rhumerus -35.1072 -15.698 -72.5728
rradius 36.5599
rwrist 3.56449
rhand -19.1167 6.55611
rfingers 7.12502
rthumb 7.19253 -23.3017
lclavicle 1.37161e-014 2.26615e-014
lhumerus -36.6194 6.54002 81.4082
lradius 38.7212
lwrist -5.11959
lhand -18.9 22.755
lfingers 7.12502
lthumb 7.40165 52.6055
rfemur -6.86437 2.00902 19.5495
rtibia 31.2791
rfoot -20.3617 3.57858
rtoes -4.66145
lfemur -13.275 5.77197 -20.5581
ltibia 46.4199
lfoot -18.537 -12.4542
ltoes -20.9373
146
root -11.4372 17.581 1.22352 66.3333 93.5543 68.3406
lowerback 13.4199 1.43381 1.38688
upperback 1.37347 2.30663 1.83974
thorax -6.09893 1.15136 0.727409
lowerneck -14.7848 -9.00468 -13.3303
upperneck 29.3618 -11.8197 10.0999
head 13.9297 -5.17291 4.32733
rclavicle -3.29237e-014 -1.27222e-014
rhumerus -35.1155 -15.744 -72.6387
rradius 36.5564
rwrist 3.61631
rhand -19.2552 6.89133
rfingers 7.12502
rthumb 7.05881 -22.971
lclavicle -3.29237e-014 -1.27222e-014
lhumerus -36.6215 6.48155 81.4885
lradius 38.606
lwrist -5.03933
lhand -18.9342 22.9604
lfingers 7.12502
lthumb 7.36867 52.8121
rfemur -7.01999 1.70161 19.7705
rtibia 31.7573
rfoot -20.6088 3.82071
rtoes -3.75891
lfemur -12.8063 6.09442 -21.0049
ltibia 45.9549
lfoot -17.3151 -13.6349
ltoes -12.99
147
root -11.426 17.5724 1.27911 61.9251 93.7532 63.9858
lowerback 13.3365 1.32203 1.22773
upperback 1.39062 2.14065 1.94092
thorax -6.04327 1.07641 0.956396
lowerneck -14.8172 -8.93222 -13.252
upperneck 29.4016 -11.7091 10.0265
head 13.9244 -5.12358 4.30602
rclavicle 7.95139e-016 -5.96354e-015
rhumerus -35.0728 -15.5658 -72.7186
rradius 36.5403
rwrist 3.68171
rhand -19.4956 7.0588
rfingers 7.12502
rthumb 6.82675 -22.8111
lclavicle 7.95139e-016 -5.96354e-015
lhumerus -36.6459 6.82909 81.5238
lradius 38.4093
lwrist -5.26483
lhand -18.9709 23.1762
lfingers 7.12502
lthumb 7.33322 53.0291
rfemur -7.18457 1.27326 20.0028
rtibia 32.3852
rfoot -20.9214 3.88509
rtoes -3.61851
lfemur -12.2225 6.51144 -21.3908
ltibia 45.3799
lfoot -16.6844 -14.1241
ltoes -6.17305
148
root -11.4157 17.538 1.33717 58.0595 93.9149 60.1646
lowerback 13.2233 1.26438 0.983165
upperback 1.41085 2.03526 2.07006
thorax -5.97116 1.03349 1.25233
lowerneck -14.8249 -8.91748 -13.3584
upperneck 29.4 -11.6751 10.0874
head 13.9337 -5.11277 4.35539
rclavicle -1.78658e-014 2.78299e-015
rhumerus -35.093 -15.5313 -72.6647
rradius 36.5981
rwrist 3.79449
rhand -19.6842 6.92787
rfingers 7.12502
rthumb 6.64467 -22.9479
lclavicle -1.78658e-014 2.78299e-015
lhumerus -36.6412 6.97578 81.7156
lradius 38.2078
lwrist -5.23715
lhand -19.2114 23.349
lfingers 7.12502
lthumb 7.1011 53.2099
rfemur -7.26932 0.765045 20.176
rtibia 32.7452
rfoot -21.1979 3.77646
rtoes -5.09393
lfemur -11.6689 7.05701 -21.8433
ltibia 44.7831
lfoot -16.9633 -12.9349
ltoes -5.24481
149
root -11.4006 17.5161 1.39283 55.3937 94.1014 57.6105
lowerback 13.192 1.26045 0.800148
upperback 1.40918 2.00958 2.15981
thorax -5.96477 1.02694 1.45554
lowerneck -14.8007 -8.9174 -13.3362
upperneck 29.4592 -11.706 10.1559
head 13.9628 -5.11284 4.37766
rclavicle 2.23633e-016 -9.93923e-016
rhumerus -35.2319 -15.5999 -72.5955
rradius 36.6583
rwrist 3.78357
rhand -19.7883 6.86913
rfingers 7.12502
rthumb 6.54415 -23.0098
lclavicle 2.23633e-016 -9.93923e-016
lhumerus -36.6785 6.72455 81.9502
lradius 38.0445
lwrist -5.048
lhand -19.4107 23.3223
lfingers 7.12502
lthumb 6.90874 53.1896
rfemur -7.24186 0.301288 20.382
rtibia 33.0946
rfoot -21.5931 3.73326
rtoes -6.66315
lfemur -10.9848 7.04993 -22.1527
ltibia 44.0627
lfoot -16.8394 -10.6911
ltoes -2.31522
150
root -11.3766 17.5135 1.44889 53.378 94.4714 55.7912
lowerback 13.1405 1.20834 0.784356
upperback 1.47687 1.94338 2.23191
thorax -5.8662 0.997285 1.55389
lowerneck -14.8294 -8.90827 -13.2003
upperneck 29.5266 -11.7574 10.2418
head 14.0023 -5.10501 4.3831
rclavicle 1.23246e-014 2.00773e-014
rhumerus -35.3472 -15.8332 -72.6308
rradius 36.7274
rwrist 3.90905
rhand -19.5781 6.7951
rfingers 7.12502
rthumb 6.74711 -23.0774
lclavicle 1.23246e-014 2.00773e-014
lhumerus -36.6999 6.48145 82.0627
lradius 37.9296
lwrist -4.93929
lhand -19.3709 23.0293
lfingers 7.12502
lthumb 6.94711 52.8953
rfemur -7.09286 -0.276698 20.7497
rtibia 33.4952
rfoot -22.0511 3.99382
rtoes -6.91641
lfemur -10.1641 6.67638 -22.1275
ltibia 43.2247
lfoot -16.6657 -8.29761
ltoes 2.00557
